<svg
  xmlns="http://www.w3.org/2000/svg"
  width="800"
  height="800"
  fill="none"
  viewBox="0 0 24 24"
>
  <path
    stroke="#323232"
    stroke-linejoin="round"
    stroke-width="2"
    d="M19 9v8c0 1.886 0 2.828-.586 3.414C17.828 21 16.886 21 15 21H9c-1.886 0-2.828 0-3.414-.586C5 19.828 5 18.886 5 17V9"
  />
  <path
    stroke="#323232"
    stroke-linecap="round"
    stroke-linejoin="round"
    stroke-width="2"
    d="m3 11 4.5-4 3.171-2.819a2 2 0 0 1 2.658 0L16.5 7l4.5 4M10 21v-4a2 2 0 0 1 2-2v0a2 2 0 0 1 2 2v4"
  />
</svg>
